# xmcd
#
# Track frame offsets: 
#        150
#        13786
#        39064
#        51881
#        80108
#        98305
#        117085
#        134508
#        149088
#        173651
#        195646
#        221702
#
# Disc length: 3222 seconds
#
# Revision: 0
# Processed by: cddbd v1.5.2PL0 Copyright (c) Steve Scherf et al.
# Submitted via: ExactAudioCopy v0.99pb5
#
DISCID=a40c940c
DTITLE=The Swamp Cats - Let it roll, let it roll
DYEAR=2010
DGENRE=Blues
TTITLE0=Godd rockin' Mama
TTITLE1=Help me
TTITLE2=Mabellene
TTITLE3=Hoochie coochie Man
TTITLE4=I can't be satisfied
TTITLE5=Sweet home Chicago
TTITLE6=Keep it to yourself
TTITLE7=Tutie Fruttie
TTITLE8=I'm in the mood
TTITLE9=Mystery Train
TTITLE10=Rock me baby
TTITLE11=Hey Bo Diddely
EXTD=
EXTT0=
EXTT1=
EXTT2=
EXTT3=
EXTT4=
EXTT5=
EXTT6=
EXTT7=
EXTT8=
EXTT9=
EXTT10=
EXTT11=
PLAYORDER=
